<?xml version="1.0" encoding="UTF-8" standalone="no"?>
<!DOCTYPE svg PUBLIC "-//W3C//DTD SVG 1.1//EN" "http://www.w3.org/Graphics/SVG/1.1/DTD/svg11.dtd">
<svg width="100%" height="100%" viewBox="0 0 1080 1080" version="1.1" xmlns="http://www.w3.org/2000/svg" xmlns:xlink="http://www.w3.org/1999/xlink" xml:space="preserve" xmlns:serif="http://www.serif.com/" style="fill-rule:evenodd;clip-rule:evenodd;stroke-linejoin:round;stroke-miterlimit:2;">
    <rect id="Artboard1" x="0" y="0" width="1080" height="1080" style="fill:none;"/>
    <clipPath id="_clip1">
        <rect id="Artboard11" serif:id="Artboard1" x="0" y="0" width="1080" height="1080"/>
    </clipPath>
    <g clip-path="url(#_clip1)">
        <g transform="matrix(1.15871,0,0,1.15871,-171.799,-81.5093)">
            <path d="M712.841,746.38L712.934,746.357C714.388,745.994 715.814,745.631 717.215,745.267L718.129,745.028L718.264,744.993L718.285,744.987L718.388,744.96L719.141,744.762L719.303,744.718L719.344,744.708L719.49,744.669L720.143,744.495L720.333,744.444L720.392,744.428L720.558,744.383L721.136,744.228L721.354,744.169L721.431,744.148L721.603,744.101L722.12,743.961L722.365,743.893L722.459,743.868L722.629,743.821L723.094,743.694L723.367,743.618L723.476,743.588L723.64,743.542L724.059,743.426L724.359,743.342L724.483,743.308L724.637,743.265L725.014,743.159L725.342,743.067L725.479,743.028L725.621,742.988L725.959,742.892L726.317,742.79L726.465,742.748L726.593,742.712L726.894,742.626L727.282,742.514L727.44,742.469L727.552,742.436L727.82,742.359L728.24,742.237L728.404,742.19L728.5,742.162L728.736,742.093L729.19,741.96L729.357,741.911L729.437,741.887L729.642,741.827L730.134,741.681L730.299,741.633L730.362,741.614L730.537,741.562L731.076,741.401L731.23,741.355L731.276,741.341L731.423,741.297L732.021,741.116L732.15,741.078L732.179,741.069L732.298,741.033L732.983,740.824L733.058,740.801L733.07,740.797C734.564,740.34 736.012,739.886 737.411,739.436L737.428,739.43L737.535,739.396L738.134,739.203L738.232,739.17L738.267,739.159L738.424,739.108L738.925,738.945L739.042,738.906L739.094,738.889L739.271,738.831L739.705,738.688L739.84,738.643L739.909,738.62L740.092,738.559L740.474,738.432L740.627,738.381L740.712,738.352L740.893,738.292L741.233,738.178L741.402,738.12L741.503,738.086L741.677,738.027L741.98,737.924L742.166,737.86L742.282,737.821L742.446,737.765L742.716,737.672L742.919,737.602L743.049,737.557L743.201,737.504L743.441,737.422L743.66,737.345L743.803,737.295L743.942,737.246L744.155,737.172L744.389,737.089L744.545,737.035L744.67,736.99L744.857,736.925L745.107,736.835L745.274,736.776L745.385,736.736L745.547,736.678L745.814,736.582L745.99,736.519L746.087,736.484L746.227,736.434L746.51,736.331L746.694,736.264L746.777,736.234L746.894,736.191L747.195,736.08L747.385,736.01L747.453,735.985L747.55,735.949L747.871,735.83L748.063,735.759L748.117,735.739L748.195,735.71L748.539,735.58L748.728,735.509L748.768,735.494L748.827,735.472L749.204,735.329L749.381,735.262L749.406,735.252L749.448,735.236L749.883,735.069L750.02,735.016L750.032,735.012C750.447,734.851 750.854,734.692 751.252,734.535L751.258,734.532L751.357,734.493L751.81,734.313L751.838,734.301L751.857,734.294L752.026,734.226L752.37,734.087L752.411,734.07L752.443,734.057L752.626,733.983L752.918,733.864L752.971,733.842L753.015,733.824L753.197,733.748L753.453,733.643L753.518,733.616L753.574,733.592L753.748,733.519L753.976,733.424L754.052,733.392L754.119,733.364L754.282,733.294L754.487,733.207L754.572,733.17L754.65,733.138L754.802,733.072L754.984,732.993L755.08,732.952L755.167,732.914L755.306,732.853L755.47,732.782L755.575,732.736L755.67,732.694L755.797,732.638L755.942,732.573L756.056,732.522L756.159,732.476L756.273,732.425L756.402,732.367L756.524,732.311L756.635,732.261L756.735,732.215L756.848,732.163L756.979,732.103L757.095,732.049L757.184,732.008L757.282,731.963L757.42,731.898L757.542,731.841L757.618,731.804L757.703,731.765L757.847,731.695L757.974,731.635L758.039,731.604L758.11,731.57L758.262,731.496L758.392,731.433L758.446,731.406L758.505,731.377L758.663,731.299L758.795,731.233L758.839,731.212L758.886,731.188L759.051,731.105L759.184,731.038L759.217,731.02L759.254,731.002L759.427,730.912L759.558,730.845L759.582,730.832L759.608,730.819L759.793,730.721L759.917,730.656L759.932,730.648L759.949,730.639L760.157,730.527L760.261,730.471L760.268,730.467C760.378,730.407 760.486,730.347 760.59,730.289L760.753,730.46L761.071,730.794L761.163,730.891L761.195,730.924L761.232,730.962L761.443,731.183L761.86,731.618L761.933,731.694L762.011,731.775L762.315,732.09L762.813,732.607L762.943,732.741C763.241,733.049 763.565,733.384 763.915,733.744L764.009,733.841L764.229,734.067L764.407,734.25L764.529,734.376L764.694,734.545L764.963,734.82L765.169,735.031L765.281,735.146L765.435,735.304L765.761,735.636L765.993,735.873L766.091,735.973L766.23,736.115L766.625,736.516L766.876,736.772L766.956,736.854L767.078,736.977L767.559,737.465L767.817,737.727L767.876,737.786L767.977,737.888L768.582,738.499L768.814,738.733L768.849,738.769L768.925,738.845L769.767,739.693L769.864,739.79L769.872,739.798C770.584,740.513 771.33,741.26 772.108,742.035L772.118,742.045L772.219,742.146L773.177,743.098L773.277,743.197L773.318,743.237L773.553,743.47L774.348,744.256L774.49,744.397L774.563,744.47L774.849,744.75L775.557,745.449L775.747,745.635L775.853,745.74L776.157,746.037L776.805,746.673L777.044,746.906L777.185,747.045L777.491,747.343L778.089,747.927L778.38,748.21L778.557,748.383L778.855,748.672L779.407,749.208L779.755,749.544L779.967,749.751L780.251,750.025L780.759,750.515L781.166,750.907L781.414,751.146L781.678,751.4L782.142,751.846L782.612,752.296L782.895,752.567L783.353,753.005L783.554,753.197L783.639,753.278C784.016,753.638 784.399,754.002 784.784,754.367C785.169,754.734 785.558,755.102 785.949,755.471L786.462,755.956L786.719,756.198L787.205,756.656L787.497,756.93L787.523,756.955L787.558,756.987L787.954,757.359L788.284,757.668L788.32,757.701L788.357,757.736L788.709,758.066L789.08,758.412L789.122,758.451L789.157,758.484L789.469,758.775L789.886,759.163L789.931,759.204L789.961,759.232L790.235,759.487L790.704,759.922L790.746,759.96L790.767,759.98L791.006,760.202L791.537,760.692L791.578,760.73C807.448,775.377 826.341,791.259 840.436,798.307C869.886,813.036 934.846,831.9 937.291,818.658C938.598,811.578 911.827,790.182 888.334,768.25L887.427,767.402L887.416,767.391C885.962,766.028 884.523,764.664 883.106,763.302L882.892,763.097L882.255,762.482L881.953,762.19L881.36,761.614L881.021,761.285L880.454,760.73L880.099,760.382L879.547,759.839L879.187,759.483L878.643,758.944L878.295,758.597L877.75,758.053C877.47,757.772 877.191,757.49 876.911,757.209L876.085,756.371L876.079,756.365L875.275,755.542L875.244,755.511L874.449,754.69L874.087,754.314C860.491,740.157 851.19,727.031 855.103,718.858C860.659,707.256 867.807,695.501 877.678,685.994L878.111,685.58L878.14,685.553L878.55,685.167L878.605,685.115L878.996,684.754L879.074,684.681L879.447,684.341L879.547,684.251L879.905,683.931L880.024,683.824L880.367,683.521L880.504,683.401L880.836,683.114L880.988,682.982L881.309,682.709L881.477,682.567L881.788,682.306L881.969,682.155L882.271,681.906L882.464,681.748L882.76,681.509L882.964,681.344L883.253,681.114L883.468,680.944L883.751,680.723L883.976,680.549L884.254,680.335L884.488,680.157L884.762,679.95L885.003,679.769L885.275,679.569L885.523,679.386L885.792,679.191L886.047,679.007L886.314,678.817L886.576,678.632L886.84,678.447L887.108,678.261L887.508,677.986L887.517,677.98L888.042,677.627L888.049,677.622L888.574,677.276L888.589,677.266L889.11,676.929L889.139,676.91L889.181,676.884L889.415,676.735L889.466,676.703L889.692,676.56L889.75,676.524L889.97,676.387L890.034,676.348L890.249,676.215L890.317,676.173L890.529,676.044L890.602,676L890.81,675.874L890.886,675.829L891.092,675.706L891.172,675.658L891.375,675.538L891.458,675.49L891.66,675.372L891.746,675.322L891.945,675.207L892.034,675.156L892.232,675.043L892.323,674.991L892.52,674.88L892.613,674.827L892.809,674.718L892.904,674.665L893.099,674.558L893.197,674.504L893.39,674.398L893.49,674.344L893.682,674.24L893.784,674.186L893.975,674.084L894.08,674.028L894.27,673.928L894.376,673.872L894.566,673.774L894.674,673.718L894.862,673.62L894.972,673.564L895.16,673.469L895.272,673.412L895.459,673.318L895.573,673.261L895.76,673.168L895.875,673.111L896.061,673.02L896.178,672.963L896.364,672.873L896.483,672.816L896.667,672.728L896.788,672.67L896.972,672.583L897.095,672.526L897.278,672.44L897.402,672.383L897.586,672.298L897.711,672.241L897.894,672.158L898.021,672.1L898.204,672.019L898.332,671.961L898.514,671.881L898.645,671.823L898.826,671.744L898.958,671.687L899.139,671.609L899.273,671.552L899.454,671.475L899.589,671.418L899.769,671.342L899.906,671.285L900.086,671.211L900.224,671.154L900.404,671.081L900.543,671.024L900.723,670.952L900.864,670.896L901.044,670.825L901.186,670.769L901.365,670.699L901.509,670.643L901.688,670.574L901.833,670.519L902.012,670.451L902.158,670.396L902.338,670.329L902.485,670.274L902.664,670.208L902.813,670.154L902.992,670.089L903.142,670.036L903.321,669.972L903.472,669.918L903.651,669.855L903.803,669.802L903.983,669.74L904.136,669.688L904.316,669.627L904.47,669.575L904.65,669.515L904.805,669.463L904.985,669.404L905.142,669.353L905.322,669.295L905.479,669.244L905.66,669.187L905.818,669.137L905.999,669.081L906.159,669.031L906.339,668.976L906.5,668.927L906.681,668.872L906.843,668.824L907.024,668.77L907.187,668.723L907.368,668.67L907.532,668.623L907.714,668.571L907.878,668.524L908.061,668.473L908.226,668.427L908.409,668.377L908.575,668.332L908.758,668.283L908.925,668.238L909.109,668.189L909.277,668.145L909.462,668.098L909.63,668.055L909.815,668.008L909.984,667.965L910.17,667.919L910.34,667.877L910.526,667.832L910.696,667.791L910.884,667.747L911.054,667.706L911.243,667.662L911.414,667.623L911.604,667.58L911.775,667.541L911.966,667.499L912.137,667.461L912.33,667.42L912.5,667.383L912.695,667.342L912.865,667.306L913.062,667.265L913.231,667.23L913.431,667.19L913.598,667.157L913.803,667.116L913.967,667.084L914.178,667.044L914.337,667.014L914.559,666.972L914.708,666.945L914.956,666.9L915.081,666.878L915.455,666.812L916.166,666.69L916.393,666.652L916.882,666.571L917.145,666.528L917.61,666.453L917.87,666.412L918.37,666.333L918.587,666.3L919.301,666.191L919.378,666.18L920.016,666.086L920.254,666.052L920.736,665.983L921.003,665.946L921.469,665.882L921.729,665.846L922.24,665.778L922.448,665.751L923.162,665.659L923.294,665.643L923.879,665.57L924.129,665.54L924.602,665.484L924.874,665.452L925.336,665.399L925.6,665.369L926.118,665.312L926.319,665.29L927.029,665.215L927.208,665.196L927.747,665.142L928.011,665.116L928.469,665.071L928.75,665.045L929.204,665.003L929.474,664.978L929.992,664.933L930.191,664.915L930.895,664.857L931.116,664.839L931.61,664.8L931.893,664.778L932.33,664.746L932.624,664.724L933.062,664.694L933.344,664.674L933.852,664.641L934.058,664.627L934.749,664.585L935.011,664.569L935.461,664.544L935.765,664.527L936.176,664.505L936.488,664.49L936.901,664.469L937.201,664.455L937.687,664.434L937.907,664.424L937.962,664.422L938.586,664.397L938.886,664.386L939.292,664.372L939.618,664.361L940,664.35L940.331,664.34L940.715,664.33L941.037,664.321L941.486,664.311L941.721,664.306L941.942,664.302L942.397,664.294L942.73,664.289L943.095,664.284L943.443,664.281L943.794,664.277L944.145,664.275L944.497,664.273L944.843,664.272L945.24,664.272L945.504,664.272L945.813,664.273L946.175,664.274L946.534,664.277L946.865,664.28L947.23,664.284L947.554,664.288L947.921,664.293L948.242,664.299L948.609,664.305L948.939,664.313L949.248,664.319L949.602,664.329L949.914,664.337L950.288,664.348L950.595,664.357L950.969,664.37L951.273,664.38L951.648,664.394L951.948,664.406L952.325,664.421L952.576,664.433L952.944,664.449L953.313,664.467L953.608,664.481L953.981,664.501L954.28,664.517L954.65,664.537L954.949,664.555L955.317,664.577L955.618,664.596L955.983,664.619C974.153,665.809 989.989,670.033 998.947,676.854C1006.7,682.756 1012.7,689.61 1016.67,698.403L1016.68,698.419L1016.86,698.834L1016.91,698.942L1017.05,699.253L1017.1,699.389L1017.23,699.678L1017.29,699.821L1017.41,700.111L1017.46,700.251L1017.59,700.56L1017.64,700.68L1017.78,701.06L1017.81,701.111L1017.98,701.562L1018.14,702.001L1018.18,702.102L1018.3,702.445L1018.35,702.571L1018.46,702.895L1018.5,703.027L1018.62,703.357L1018.66,703.48L1018.78,703.841L1018.81,703.932L1018.96,704.389C1019.01,704.55 1019.06,704.711 1019.11,704.872L1019.25,705.342L1019.27,705.409L1019.39,705.813L1019.42,705.911L1019.52,706.292L1019.55,706.395L1019.66,706.786L1019.69,706.875L1019.8,707.311L1019.81,707.353L1019.94,707.848C1019.98,708.018 1020.03,708.187 1020.07,708.357L1020.19,708.864L1020.2,708.886L1020.31,709.362L1020.32,709.425L1020.42,709.872L1020.43,709.94L1020.53,710.4L1020.54,710.448C1020.73,711.317 1020.89,712.201 1021.05,713.102L1021.05,713.125L1021.14,713.644L1021.14,713.672L1021.23,714.211L1021.25,714.373C1021.79,717.929 1022.11,721.738 1022.2,725.83C1022.8,754.782 1010.15,781.713 1021.69,784.711C1033.02,787.652 1050.88,740.84 1054.37,717.929C1057.86,695.019 1052.11,671.203 1042.62,647.249C1062.66,622.389 1083.25,580.668 1080,525.047C1077.37,480.045 1061.3,439.172 1034.82,427.035C1034.82,427.035 1036.94,436.262 1030.51,446.213C1005.61,484.746 905.448,512.881 849.79,522.933C784.657,534.695 663.948,530.137 663.948,530.137C464.083,413.307 403.363,341.292 229.482,272.928C201.83,262.057 177.104,255.668 148.267,249.617C176.146,259.134 199.679,270.283 226.462,282.252C413.97,366.043 459.759,429.187 637.476,540C497.372,591.747 338.743,625.693 209.761,598.223C189.169,593.838 165.947,585.209 157.08,566.153C157.08,566.153 142.608,578.197 156.424,606.987C187.781,672.33 331.593,722.004 409.461,742.518C471.156,758.77 561.025,765.422 634.518,759.263C664.259,756.77 691.279,751.748 712.841,746.38ZM885.357,754.356C889.497,758.423 893.903,762.54 898.345,766.612L899.602,767.761C950.327,764.738 989.504,750.837 1014.1,723.191C1013.77,716.902 1012.78,711.406 1011.18,706.54C1008.45,710.214 1005.51,713.672 1002.38,716.914C1000.45,718.948 998.433,720.885 996.342,722.739L996.293,722.783L992.772,725.78C991.493,726.772 990.215,727.765 988.937,728.758L987.681,729.647L987.681,712.198L981.596,712.198L981.596,733.743L980.843,734.228L978.809,735.421L978.809,709.342L972.723,709.342L972.723,738.777C968.489,740.942 964.071,742.89 959.477,744.623L959.477,681.084L953.391,681.084L953.391,746.783L953.313,746.81L948.414,748.312L948.414,739.522L942.329,739.522L942.329,749.928L937.818,750.982L935.011,751.544L935.011,712.198L928.926,712.198L928.926,752.649L926.883,752.993L922.698,753.568L922.698,729.985L916.613,729.985L916.613,754.27C913.661,754.561 910.666,754.796 907.63,754.971L907.485,754.98L907.485,712.198L901.4,712.198L901.4,755.251L897.547,755.36L891.443,755.31L891.443,701.076L885.357,701.076L885.357,754.356ZM729.702,750.085C746.483,753.652 762.756,756.743 778.477,759.316C770.035,751.298 763.017,744.246 758.862,740.003C752.268,742.88 742.295,746.449 729.702,750.085ZM882.583,751.596L882.583,732.519L876.498,732.519L876.498,745.229C878.415,747.323 880.454,749.45 882.583,751.596ZM1002.38,716.914L1002.38,691.571L996.293,691.571L996.293,722.783C998.388,720.905 1000.42,718.952 1002.38,716.914ZM889.037,686.747C896.6,680.961 905.705,676.621 916.821,674.694C927.111,672.911 937.669,672.129 947.717,672.286C939.69,681.296 935.03,692.351 934.631,705.009C920.537,695.415 905.033,688.877 889.037,686.747Z" style="fill:rgb(1,188,163);"/>
        </g>
    </g>
</svg>
